<svg id="Layer_1" height="512" viewBox="0 0 512 512" width="512" xmlns="http://www.w3.org/2000/svg" data-name="Layer 1"><path d="m7.931 7.841h346.979v496h-346.979z" fill="#eceff1" fill-rule="evenodd"/><path d="m181.42 7.841h173.49v496h-173.49z" fill="#c4cccf" fill-rule="evenodd"/><path d="m57.001 212.896h92.9v85.889h-92.9z" fill="#f6dccd"/><path d="m57.001 368.881h92.9v85.889h-92.9z" fill="#d5e7ff"/><path d="m103.451 212.896h46.45v85.889h-46.45z" fill="#f1cbbc"/><path d="m103.451 368.881h46.45v85.889h-46.45z" fill="#acceff"/><path d="m57.001 56.911h92.9v85.889h-92.9z" fill="#f9e997"/><path d="m103.451 56.911h46.45v85.889h-46.45z" fill="#f5d844"/><g fill-rule="evenodd"><path d="m404.569 274.374 99.5 57.446v114.893l-99.5 57.446-99.5-57.446v-114.893z" fill="#e3a76f"/><path d="m404.569 389.266v-114.892l99.5 57.446z" fill="#c48958"/><path d="m404.569 504.159v-114.893l-99.5-57.446v114.893z" fill="#f2d1a5"/><path d="m404.569 389.266v114.893l99.5-57.446v-114.893z" fill="#e3a76f"/><path d="m496 442.013v-96.253l-83.36 48.132v96.247zm-149.022 37.936-45.7-26.387a8 8 0 0 1 -4-6.93v-114.732a8 8 0 0 1 4-6.931l45.7-26.386v-282.583h-330.978v480h330.978v-16.05zm-33.7-37.936v-96.253l83.358 48.122v96.257zm8-110.113 83.359-48.131 83.363 48.131-83.363 48.131-83.357-48.131zm190.722 0v114.732a8 8 0 0 1 -4 6.93l-99.361 57.368a8.007 8.007 0 0 1 -8 0l-37.659-21.739v14.809a8 8 0 0 1 -8 8h-346.98a8 8 0 0 1 -8-8v-496a8 8 0 0 1 8-8h346.979a8 8 0 0 1 8 8v281.35l37.659-21.75a8.046 8.046 0 0 1 8 0l99.362 57.369a8 8 0 0 1 4 6.931zm-263.091 72.083a8 8 0 1 1 0 16h-46.928a8 8 0 1 1 0-16zm0-42.942a8 8 0 1 1 0 16h-46.928a8 8 0 1 1 0-16zm-46.928-97.041a8 8 0 0 1 0-16h103.928a8 8 0 1 1 0 16zm0-42.941a8 8 0 1 1 0-16h103.928a8 8 0 1 1 0 16zm0-113.038a8 8 0 0 1 0-16h103.928a8 8 0 1 1 0 16zm0-42.951a8 8 0 0 1 0-16h103.928a8 8 0 1 1 0 16zm-41.4 319.069a8 8 0 0 1 10.752 11.851l-13.361 12.12v46.82a8 8 0 0 1 -8 8h-92.9a8 8 0 0 1 -8-8v-85.892a8 8 0 0 1 8-8h92.9a8 8 0 0 1 0 16h-84.9v69.889h76.9v-24.3l-14.862 13.493a8.019 8.019 0 0 1 -11.04-.269l-18.21-18.21a8 8 0 1 1 11.318-11.309l12.822 12.819 38.577-35.011zm0-155.989a8 8 0 0 1 10.749 11.85l-13.361 12.12v46.829a8 8 0 0 1 -8 8h-92.9a8.005 8.005 0 0 1 -8-8v-85.9a8 8 0 0 1 8-8h92.9a8 8 0 0 1 0 16h-84.9v69.9h76.9v-24.311l-14.859 13.493a8.005 8.005 0 0 1 -11.04-.259l-18.21-18.211a8 8 0 0 1 11.318-11.318l12.822 12.818 38.577-35.01zm11.3-155.442a8.015 8.015 0 0 1 -.547 11.313l-13.361 12.12v46.82a7.994 7.994 0 0 1 -8 8h-92.9a8 8 0 0 1 -8-8v-85.891a8 8 0 0 1 8-8h92.9a8 8 0 0 1 0 16h-84.9v69.89h76.9v-24.3l-14.863 13.492a8.013 8.013 0 0 1 -11.04-.274l-18.21-18.206a8 8 0 0 1 11.318-11.313l12.822 12.823 38.577-35.011a8 8 0 0 1 11.3.538z"/></g></svg>