<svg id="Layer_1" enable-background="new 0 0 65 65" viewBox="0 0 65 65" xmlns="http://www.w3.org/2000/svg"><g><path d="m.5.5h64v24.4h-64z" fill="#d3d3d3"/><path d="m.5.5h64v.9h-64z" fill="#eeeeef"/><path d="m8.2 8.6h48.1v7.5h-48.1z" fill="#59595c"/><path d="m12.1 10.6h40.4v3.5h-40.4z" fill="#2e435a"/><path d="m50.4 12.3 2.7 12.6h-42l3-12.6z" fill="#2e435a" opacity=".2"/><g><path d="m50.4 12.3h-36.3v52.1l.1.1 4.5-4 4.5 4 4.6-4 4.5 4 4.5-4 4.6 4 4.5-4 4.5 4z" fill="#f4f4f4"/><path d="m21.9 29.4c.6 0 1 .5 1 1 0 .6-.5 1-1 1-.6 0-1-.5-1-1 0-.3-.3-.6-.6-.6s-.6.3-.6.6c0 1 .7 1.9 1.6 2.2v.8c0 .3.3.6.6.6s.6-.3.6-.6v-.8c.9-.3 1.6-1.1 1.6-2.2 0-1.2-1-2.3-2.3-2.3-.6 0-1-.5-1-1s.5-1 1-1c.6 0 1 .5 1 1 0 .3.3.6.6.6s.6-.3.6-.6c0-1-.7-1.9-1.6-2.2v-.8c0-.3-.3-.6-.6-.6s-.6.3-.6.6v.8c-.9.3-1.6 1.1-1.6 2.2 0 1.3 1 2.3 2.3 2.3z" fill="#e5a45e"/><path d="m21 49.4h22.6v3.1h-22.6z" fill="#92cebe"/><g fill="#d3d3d3"><path d="m27.9 40.7h18.2v2.5h-18.2z"/><path d="m27.9 34.7h18.2v2.5h-18.2z"/><path d="m27.9 28.7h18.2v2.5h-18.2z"/><path d="m35.3 22.5h10.8v2.6h-10.8z"/></g></g></g></svg>