<svg id="Icons" height="512" viewBox="0 0 60 60" width="512" xmlns="http://www.w3.org/2000/svg"><path d="m12 2v21h-10a1 1 0 0 1 -1-1v-16a4.855 4.855 0 0 1 5-5h1z" fill="#d5d8db"/><path d="m49 6v27.35l-15.4 16.56-3.06 1.93a.987.987 0 0 1 -1.07 0l-3.67-2.32a.987.987 0 0 0 -1.07 0l-3.69 2.33a1.011 1.011 0 0 1 -1.06 0l-3.69-2.33a.987.987 0 0 0 -1.07 0l-2.69 1.69a.992.992 0 0 1 -1.53-.84v-44.16a5.147 5.147 0 0 0 -4.51-5.19 3.854 3.854 0 0 0 -.48-.02h37.99a5 5 0 0 1 5 5z" fill="#f0f1f2"/><circle cx="46" cy="46" fill="#50ad80" r="13"/><path d="m44 22h-28a1 1 0 0 1 0-2h28a1 1 0 0 1 0 2z" fill="#505068"/><path d="m30 42h-14a1 1 0 0 1 0-2h14a1 1 0 0 1 0 2z" fill="#505068"/><g fill="#b5b8bc"><path d="m19 27h-3a1 1 0 0 1 0-2h3a1 1 0 0 1 0 2z"/><path d="m40 27h-17a1 1 0 0 1 0-2h17a1 1 0 0 1 0 2z"/><path d="m19 32h-3a1 1 0 0 1 0-2h3a1 1 0 0 1 0 2z"/><path d="m39 32h-16a1 1 0 0 1 0-2h16a1 1 0 0 1 0 2z"/><path d="m19 37h-3a1 1 0 0 1 0-2h3a1 1 0 0 1 0 2z"/><path d="m33 37h-10a1 1 0 0 1 0-2h10a1 1 0 0 1 0 2z"/></g><path d="m22 13a3 3 0 0 0 -3-3 1 1 0 1 1 .867-1.5 1 1 0 0 0 1.731-1 2.993 2.993 0 0 0 -1.598-1.3v-.2a1 1 0 0 0 -2 0v.184a2.993 2.993 0 0 0 1 5.816 1 1 0 1 1 -.867 1.5 1 1 0 0 0 -1.731 1 2.993 2.993 0 0 0 1.6 1.3v.2a1 1 0 0 0 2 0v-.184a3 3 0 0 0 1.998-2.816z" fill="#50ad80"/><path d="m35 12h-9a1 1 0 0 1 0-2h9a1 1 0 0 1 0 2z" fill="#b5b8bc"/><path d="m44 17h-18a1 1 0 0 1 0-2h18a1 1 0 0 1 0 2z" fill="#b5b8bc"/><path d="m44 52a1 1 0 0 1 -.707-.293l-3-3a1 1 0 0 1 1.414-1.414l2.157 2.157 6.317-9.023a1 1 0 1 1 1.638 1.146l-7 10a1 1 0 0 1 -.732.423.844.844 0 0 1 -.087.004z" fill="#fff"/></svg>